<mxfile host="app.diagrams.net" agent="Mozilla/5.0 (X11; Linux x86_64; rv:136.0) Gecko/20100101 Firefox/136.0" version="26.1.3">
  <diagram name="Page-1" id="Ca-NJv47mgkmr87JEa4M">
    <mxGraphModel dx="700" dy="1117" grid="1" gridSize="10" guides="1" tooltips="1" connect="1" arrows="1" fold="1" page="1" pageScale="1" pageWidth="850" pageHeight="1100" math="0" shadow="0">
      <root>
        <mxCell id="0" />
        <mxCell id="1" parent="0" />
        <mxCell id="jff7gDj7DH_eG66rNZbx-47" style="edgeStyle=orthogonalEdgeStyle;rounded=0;orthogonalLoop=1;jettySize=auto;html=1;" edge="1" parent="1" source="jff7gDj7DH_eG66rNZbx-2" target="jff7gDj7DH_eG66rNZbx-18">
          <mxGeometry relative="1" as="geometry" />
        </mxCell>
        <mxCell id="jff7gDj7DH_eG66rNZbx-75" value="Send Message" style="edgeLabel;html=1;align=center;verticalAlign=middle;resizable=0;points=[];" vertex="1" connectable="0" parent="jff7gDj7DH_eG66rNZbx-47">
          <mxGeometry x="0.44" y="5" relative="1" as="geometry">
            <mxPoint as="offset" />
          </mxGeometry>
        </mxCell>
        <mxCell id="jff7gDj7DH_eG66rNZbx-53" style="edgeStyle=orthogonalEdgeStyle;rounded=0;orthogonalLoop=1;jettySize=auto;html=1;entryX=0.5;entryY=0;entryDx=0;entryDy=0;" edge="1" parent="1" source="jff7gDj7DH_eG66rNZbx-2" target="jff7gDj7DH_eG66rNZbx-16">
          <mxGeometry relative="1" as="geometry" />
        </mxCell>
        <mxCell id="jff7gDj7DH_eG66rNZbx-2" value="Group Admin" style="strokeWidth=2;html=1;shape=mxgraph.flowchart.start_2;whiteSpace=wrap;" vertex="1" parent="1">
          <mxGeometry x="280" y="30" width="100" height="100" as="geometry" />
        </mxCell>
        <mxCell id="jff7gDj7DH_eG66rNZbx-3" value="Telegram API" style="strokeWidth=2;html=1;shape=mxgraph.flowchart.start_2;whiteSpace=wrap;" vertex="1" parent="1">
          <mxGeometry x="120" y="520" width="100" height="100" as="geometry" />
        </mxCell>
        <mxCell id="jff7gDj7DH_eG66rNZbx-49" style="edgeStyle=orthogonalEdgeStyle;rounded=0;orthogonalLoop=1;jettySize=auto;html=1;" edge="1" parent="1" source="jff7gDj7DH_eG66rNZbx-4" target="jff7gDj7DH_eG66rNZbx-2">
          <mxGeometry relative="1" as="geometry" />
        </mxCell>
        <mxCell id="jff7gDj7DH_eG66rNZbx-50" style="edgeStyle=orthogonalEdgeStyle;rounded=0;orthogonalLoop=1;jettySize=auto;html=1;" edge="1" parent="1" source="jff7gDj7DH_eG66rNZbx-4" target="jff7gDj7DH_eG66rNZbx-16">
          <mxGeometry relative="1" as="geometry">
            <Array as="points">
              <mxPoint x="465" y="130" />
              <mxPoint x="355" y="130" />
            </Array>
          </mxGeometry>
        </mxCell>
        <mxCell id="jff7gDj7DH_eG66rNZbx-52" value="/ Start" style="edgeLabel;html=1;align=center;verticalAlign=middle;resizable=0;points=[];" vertex="1" connectable="0" parent="jff7gDj7DH_eG66rNZbx-50">
          <mxGeometry x="-0.021" y="-2" relative="1" as="geometry">
            <mxPoint as="offset" />
          </mxGeometry>
        </mxCell>
        <mxCell id="jff7gDj7DH_eG66rNZbx-51" style="edgeStyle=orthogonalEdgeStyle;rounded=0;orthogonalLoop=1;jettySize=auto;html=1;" edge="1" parent="1" source="jff7gDj7DH_eG66rNZbx-4" target="jff7gDj7DH_eG66rNZbx-15">
          <mxGeometry relative="1" as="geometry" />
        </mxCell>
        <mxCell id="jff7gDj7DH_eG66rNZbx-61" style="edgeStyle=orthogonalEdgeStyle;rounded=0;orthogonalLoop=1;jettySize=auto;html=1;" edge="1" parent="1" source="jff7gDj7DH_eG66rNZbx-4">
          <mxGeometry relative="1" as="geometry">
            <mxPoint x="610" y="220" as="targetPoint" />
          </mxGeometry>
        </mxCell>
        <mxCell id="jff7gDj7DH_eG66rNZbx-62" value="/checknews" style="edgeLabel;html=1;align=center;verticalAlign=middle;resizable=0;points=[];" vertex="1" connectable="0" parent="jff7gDj7DH_eG66rNZbx-61">
          <mxGeometry x="0.1131" y="2" relative="1" as="geometry">
            <mxPoint as="offset" />
          </mxGeometry>
        </mxCell>
        <mxCell id="jff7gDj7DH_eG66rNZbx-63" style="edgeStyle=orthogonalEdgeStyle;rounded=0;orthogonalLoop=1;jettySize=auto;html=1;" edge="1" parent="1" source="jff7gDj7DH_eG66rNZbx-4" target="jff7gDj7DH_eG66rNZbx-9">
          <mxGeometry relative="1" as="geometry" />
        </mxCell>
        <mxCell id="jff7gDj7DH_eG66rNZbx-64" value="Replied with /checknews" style="edgeLabel;html=1;align=center;verticalAlign=middle;resizable=0;points=[];" vertex="1" connectable="0" parent="jff7gDj7DH_eG66rNZbx-63">
          <mxGeometry x="0.6228" y="-2" relative="1" as="geometry">
            <mxPoint as="offset" />
          </mxGeometry>
        </mxCell>
        <mxCell id="jff7gDj7DH_eG66rNZbx-4" value="User" style="strokeWidth=2;html=1;shape=mxgraph.flowchart.start_2;whiteSpace=wrap;" vertex="1" parent="1">
          <mxGeometry x="440" y="55" width="50" height="50" as="geometry" />
        </mxCell>
        <mxCell id="jff7gDj7DH_eG66rNZbx-5" value="ML Model" style="strokeWidth=2;html=1;shape=mxgraph.flowchart.database;whiteSpace=wrap;" vertex="1" parent="1">
          <mxGeometry x="610" y="550" width="60" height="60" as="geometry" />
        </mxCell>
        <mxCell id="jff7gDj7DH_eG66rNZbx-6" value="" style="verticalLabelPosition=bottom;verticalAlign=top;html=1;shape=mxgraph.basic.rect;fillColor2=none;strokeWidth=1;size=20;indent=5;fillColor=none;" vertex="1" parent="1">
          <mxGeometry x="20" y="150" width="810" height="330" as="geometry" />
        </mxCell>
        <mxCell id="jff7gDj7DH_eG66rNZbx-60" style="edgeStyle=orthogonalEdgeStyle;rounded=0;orthogonalLoop=1;jettySize=auto;html=1;" edge="1" parent="1" source="jff7gDj7DH_eG66rNZbx-9" target="jff7gDj7DH_eG66rNZbx-17">
          <mxGeometry relative="1" as="geometry" />
        </mxCell>
        <mxCell id="jff7gDj7DH_eG66rNZbx-9" value="Check Replied Message" style="rounded=0;whiteSpace=wrap;html=1;" vertex="1" parent="1">
          <mxGeometry x="680" y="170" width="120" height="40" as="geometry" />
        </mxCell>
        <mxCell id="jff7gDj7DH_eG66rNZbx-10" value="News Content Analysis" style="rounded=0;whiteSpace=wrap;html=1;" vertex="1" parent="1">
          <mxGeometry x="680" y="410" width="120" height="40" as="geometry" />
        </mxCell>
        <mxCell id="jff7gDj7DH_eG66rNZbx-11" value="Message Content Analysis" style="rounded=0;whiteSpace=wrap;html=1;" vertex="1" parent="1">
          <mxGeometry x="490" y="410" width="120" height="40" as="geometry" />
        </mxCell>
        <mxCell id="jff7gDj7DH_eG66rNZbx-12" value="Basic bot Interaction" style="rounded=0;whiteSpace=wrap;html=1;" vertex="1" parent="1">
          <mxGeometry x="580" y="360" width="120" height="40" as="geometry" />
        </mxCell>
        <mxCell id="jff7gDj7DH_eG66rNZbx-15" value="Get help" style="rounded=0;whiteSpace=wrap;html=1;" vertex="1" parent="1">
          <mxGeometry x="440" y="170" width="80" height="40" as="geometry" />
        </mxCell>
        <mxCell id="jff7gDj7DH_eG66rNZbx-16" value="Start Bot" style="rounded=0;whiteSpace=wrap;html=1;" vertex="1" parent="1">
          <mxGeometry x="315" y="170" width="80" height="40" as="geometry" />
        </mxCell>
        <mxCell id="jff7gDj7DH_eG66rNZbx-58" style="edgeStyle=orthogonalEdgeStyle;rounded=0;orthogonalLoop=1;jettySize=auto;html=1;dashed=1;" edge="1" parent="1" source="jff7gDj7DH_eG66rNZbx-17" target="jff7gDj7DH_eG66rNZbx-5">
          <mxGeometry relative="1" as="geometry">
            <Array as="points">
              <mxPoint x="820" y="240" />
              <mxPoint x="820" y="580" />
            </Array>
          </mxGeometry>
        </mxCell>
        <mxCell id="jff7gDj7DH_eG66rNZbx-59" value="Uses" style="edgeLabel;html=1;align=center;verticalAlign=middle;resizable=0;points=[];" vertex="1" connectable="0" parent="jff7gDj7DH_eG66rNZbx-58">
          <mxGeometry x="0.3254" relative="1" as="geometry">
            <mxPoint as="offset" />
          </mxGeometry>
        </mxCell>
        <mxCell id="jff7gDj7DH_eG66rNZbx-72" style="edgeStyle=orthogonalEdgeStyle;rounded=0;orthogonalLoop=1;jettySize=auto;html=1;entryX=0.5;entryY=0;entryDx=0;entryDy=0;curved=1;" edge="1" parent="1" source="jff7gDj7DH_eG66rNZbx-17" target="jff7gDj7DH_eG66rNZbx-19">
          <mxGeometry relative="1" as="geometry">
            <Array as="points">
              <mxPoint x="610" y="290" />
              <mxPoint x="365" y="290" />
            </Array>
          </mxGeometry>
        </mxCell>
        <mxCell id="jff7gDj7DH_eG66rNZbx-17" value="Manual Check News" style="rounded=0;whiteSpace=wrap;html=1;" vertex="1" parent="1">
          <mxGeometry x="550" y="220" width="120" height="40" as="geometry" />
        </mxCell>
        <mxCell id="jff7gDj7DH_eG66rNZbx-31" style="edgeStyle=orthogonalEdgeStyle;rounded=0;orthogonalLoop=1;jettySize=auto;html=1;" edge="1" parent="1" source="jff7gDj7DH_eG66rNZbx-18" target="jff7gDj7DH_eG66rNZbx-21">
          <mxGeometry relative="1" as="geometry" />
        </mxCell>
        <mxCell id="jff7gDj7DH_eG66rNZbx-68" style="edgeStyle=orthogonalEdgeStyle;rounded=0;orthogonalLoop=1;jettySize=auto;html=1;" edge="1" parent="1" source="jff7gDj7DH_eG66rNZbx-18" target="jff7gDj7DH_eG66rNZbx-23">
          <mxGeometry relative="1" as="geometry">
            <Array as="points">
              <mxPoint x="90" y="190" />
            </Array>
          </mxGeometry>
        </mxCell>
        <mxCell id="jff7gDj7DH_eG66rNZbx-18" value="Auto Analyse Message" style="rounded=0;whiteSpace=wrap;html=1;" vertex="1" parent="1">
          <mxGeometry x="110" y="170" width="120" height="40" as="geometry" />
        </mxCell>
        <mxCell id="jff7gDj7DH_eG66rNZbx-73" style="edgeStyle=orthogonalEdgeStyle;rounded=0;orthogonalLoop=1;jettySize=auto;html=1;" edge="1" parent="1" source="jff7gDj7DH_eG66rNZbx-19" target="jff7gDj7DH_eG66rNZbx-54">
          <mxGeometry relative="1" as="geometry" />
        </mxCell>
        <mxCell id="jff7gDj7DH_eG66rNZbx-74" value="Via" style="edgeLabel;html=1;align=center;verticalAlign=middle;resizable=0;points=[];" vertex="1" connectable="0" parent="jff7gDj7DH_eG66rNZbx-73">
          <mxGeometry x="-0.0286" relative="1" as="geometry">
            <mxPoint as="offset" />
          </mxGeometry>
        </mxCell>
        <mxCell id="jff7gDj7DH_eG66rNZbx-19" value="Show Detailed Analysis" style="rounded=0;whiteSpace=wrap;html=1;" vertex="1" parent="1">
          <mxGeometry x="305" y="420" width="120" height="40" as="geometry" />
        </mxCell>
        <mxCell id="jff7gDj7DH_eG66rNZbx-20" value="Notify Malicious Link" style="rounded=0;whiteSpace=wrap;html=1;" vertex="1" parent="1">
          <mxGeometry x="30" y="370" width="120" height="40" as="geometry" />
        </mxCell>
        <mxCell id="jff7gDj7DH_eG66rNZbx-32" style="edgeStyle=orthogonalEdgeStyle;rounded=0;orthogonalLoop=1;jettySize=auto;html=1;" edge="1" parent="1" source="jff7gDj7DH_eG66rNZbx-21" target="jff7gDj7DH_eG66rNZbx-24">
          <mxGeometry relative="1" as="geometry" />
        </mxCell>
        <mxCell id="jff7gDj7DH_eG66rNZbx-44" value="Fake news detected" style="edgeLabel;html=1;align=center;verticalAlign=middle;resizable=0;points=[];" vertex="1" connectable="0" parent="jff7gDj7DH_eG66rNZbx-32">
          <mxGeometry x="-0.5417" y="2" relative="1" as="geometry">
            <mxPoint as="offset" />
          </mxGeometry>
        </mxCell>
        <mxCell id="jff7gDj7DH_eG66rNZbx-67" style="edgeStyle=orthogonalEdgeStyle;rounded=0;orthogonalLoop=1;jettySize=auto;html=1;dashed=1;endArrow=none;startFill=0;" edge="1" parent="1" source="jff7gDj7DH_eG66rNZbx-21">
          <mxGeometry relative="1" as="geometry">
            <mxPoint x="450" y="320" as="targetPoint" />
          </mxGeometry>
        </mxCell>
        <mxCell id="jff7gDj7DH_eG66rNZbx-21" value="Check Fake news" style="rounded=0;whiteSpace=wrap;html=1;" vertex="1" parent="1">
          <mxGeometry x="110" y="300" width="120" height="40" as="geometry" />
        </mxCell>
        <mxCell id="jff7gDj7DH_eG66rNZbx-33" style="edgeStyle=orthogonalEdgeStyle;rounded=0;orthogonalLoop=1;jettySize=auto;html=1;" edge="1" parent="1" source="jff7gDj7DH_eG66rNZbx-22" target="jff7gDj7DH_eG66rNZbx-25">
          <mxGeometry relative="1" as="geometry" />
        </mxCell>
        <mxCell id="jff7gDj7DH_eG66rNZbx-45" value="Spam Detected" style="edgeLabel;html=1;align=center;verticalAlign=middle;resizable=0;points=[];" vertex="1" connectable="0" parent="jff7gDj7DH_eG66rNZbx-33">
          <mxGeometry x="-0.7397" y="2" relative="1" as="geometry">
            <mxPoint as="offset" />
          </mxGeometry>
        </mxCell>
        <mxCell id="jff7gDj7DH_eG66rNZbx-65" style="edgeStyle=orthogonalEdgeStyle;rounded=0;orthogonalLoop=1;jettySize=auto;html=1;dashed=1;" edge="1" parent="1" source="jff7gDj7DH_eG66rNZbx-22" target="jff7gDj7DH_eG66rNZbx-5">
          <mxGeometry relative="1" as="geometry">
            <Array as="points">
              <mxPoint x="450" y="260" />
              <mxPoint x="450" y="580" />
            </Array>
          </mxGeometry>
        </mxCell>
        <mxCell id="jff7gDj7DH_eG66rNZbx-71" value="Uses" style="edgeLabel;html=1;align=center;verticalAlign=middle;resizable=0;points=[];" vertex="1" connectable="0" parent="jff7gDj7DH_eG66rNZbx-65">
          <mxGeometry x="-0.2144" y="1" relative="1" as="geometry">
            <mxPoint as="offset" />
          </mxGeometry>
        </mxCell>
        <mxCell id="jff7gDj7DH_eG66rNZbx-22" value="Check Spam" style="rounded=0;whiteSpace=wrap;html=1;" vertex="1" parent="1">
          <mxGeometry x="195" y="240" width="120" height="40" as="geometry" />
        </mxCell>
        <mxCell id="jff7gDj7DH_eG66rNZbx-34" style="edgeStyle=orthogonalEdgeStyle;rounded=0;orthogonalLoop=1;jettySize=auto;html=1;entryX=0.5;entryY=0;entryDx=0;entryDy=0;" edge="1" parent="1" source="jff7gDj7DH_eG66rNZbx-23" target="jff7gDj7DH_eG66rNZbx-20">
          <mxGeometry relative="1" as="geometry" />
        </mxCell>
        <mxCell id="jff7gDj7DH_eG66rNZbx-46" value="Malicious&lt;br&gt;link" style="edgeLabel;html=1;align=center;verticalAlign=middle;resizable=0;points=[];" vertex="1" connectable="0" parent="jff7gDj7DH_eG66rNZbx-34">
          <mxGeometry x="-0.6222" y="-1" relative="1" as="geometry">
            <mxPoint as="offset" />
          </mxGeometry>
        </mxCell>
        <mxCell id="jff7gDj7DH_eG66rNZbx-69" style="edgeStyle=orthogonalEdgeStyle;rounded=0;orthogonalLoop=1;jettySize=auto;html=1;dashed=1;endArrow=none;startFill=0;" edge="1" parent="1" source="jff7gDj7DH_eG66rNZbx-23">
          <mxGeometry relative="1" as="geometry">
            <mxPoint x="450" y="260" as="targetPoint" />
            <Array as="points">
              <mxPoint x="130" y="220" />
              <mxPoint x="451" y="220" />
            </Array>
          </mxGeometry>
        </mxCell>
        <mxCell id="jff7gDj7DH_eG66rNZbx-23" value="Check Malicious Links" style="rounded=0;whiteSpace=wrap;html=1;" vertex="1" parent="1">
          <mxGeometry x="30" y="240" width="120" height="40" as="geometry" />
        </mxCell>
        <mxCell id="jff7gDj7DH_eG66rNZbx-38" style="edgeStyle=orthogonalEdgeStyle;rounded=0;orthogonalLoop=1;jettySize=auto;html=1;" edge="1" parent="1" source="jff7gDj7DH_eG66rNZbx-24" target="jff7gDj7DH_eG66rNZbx-3">
          <mxGeometry relative="1" as="geometry" />
        </mxCell>
        <mxCell id="jff7gDj7DH_eG66rNZbx-41" value="Via" style="edgeLabel;html=1;align=center;verticalAlign=middle;resizable=0;points=[];" vertex="1" connectable="0" parent="jff7gDj7DH_eG66rNZbx-38">
          <mxGeometry x="0.2778" relative="1" as="geometry">
            <mxPoint as="offset" />
          </mxGeometry>
        </mxCell>
        <mxCell id="jff7gDj7DH_eG66rNZbx-24" value="Notify Fake News" style="rounded=0;whiteSpace=wrap;html=1;" vertex="1" parent="1">
          <mxGeometry x="110" y="420" width="120" height="40" as="geometry" />
        </mxCell>
        <mxCell id="jff7gDj7DH_eG66rNZbx-25" value="Notify Spam" style="rounded=0;whiteSpace=wrap;html=1;" vertex="1" parent="1">
          <mxGeometry x="195" y="370" width="120" height="40" as="geometry" />
        </mxCell>
        <mxCell id="jff7gDj7DH_eG66rNZbx-30" style="edgeStyle=orthogonalEdgeStyle;rounded=0;orthogonalLoop=1;jettySize=auto;html=1;" edge="1" parent="1" source="jff7gDj7DH_eG66rNZbx-18">
          <mxGeometry relative="1" as="geometry">
            <mxPoint x="250" y="240" as="targetPoint" />
            <Array as="points">
              <mxPoint x="250" y="190" />
            </Array>
          </mxGeometry>
        </mxCell>
        <mxCell id="jff7gDj7DH_eG66rNZbx-39" style="edgeStyle=orthogonalEdgeStyle;rounded=0;orthogonalLoop=1;jettySize=auto;html=1;entryX=1;entryY=0.5;entryDx=0;entryDy=0;entryPerimeter=0;" edge="1" parent="1" source="jff7gDj7DH_eG66rNZbx-25" target="jff7gDj7DH_eG66rNZbx-3">
          <mxGeometry relative="1" as="geometry" />
        </mxCell>
        <mxCell id="jff7gDj7DH_eG66rNZbx-42" value="Via" style="edgeLabel;html=1;align=center;verticalAlign=middle;resizable=0;points=[];" vertex="1" connectable="0" parent="jff7gDj7DH_eG66rNZbx-39">
          <mxGeometry x="0.0427" y="1" relative="1" as="geometry">
            <mxPoint as="offset" />
          </mxGeometry>
        </mxCell>
        <mxCell id="jff7gDj7DH_eG66rNZbx-40" style="edgeStyle=orthogonalEdgeStyle;rounded=0;orthogonalLoop=1;jettySize=auto;html=1;entryX=0;entryY=0.6;entryDx=0;entryDy=0;entryPerimeter=0;" edge="1" parent="1" source="jff7gDj7DH_eG66rNZbx-20" target="jff7gDj7DH_eG66rNZbx-3">
          <mxGeometry relative="1" as="geometry" />
        </mxCell>
        <mxCell id="jff7gDj7DH_eG66rNZbx-43" value="Via" style="edgeLabel;html=1;align=center;verticalAlign=middle;resizable=0;points=[];" vertex="1" connectable="0" parent="jff7gDj7DH_eG66rNZbx-40">
          <mxGeometry x="-0.0233" relative="1" as="geometry">
            <mxPoint as="offset" />
          </mxGeometry>
        </mxCell>
        <mxCell id="jff7gDj7DH_eG66rNZbx-54" value="TelegramAPITextText" style="rounded=0;whiteSpace=wrap;html=1;" vertex="1" parent="1">
          <mxGeometry x="305" y="550" width="120" height="40" as="geometry" />
        </mxCell>
        <mxCell id="jff7gDj7DH_eG66rNZbx-55" style="edgeStyle=orthogonalEdgeStyle;rounded=0;orthogonalLoop=1;jettySize=auto;html=1;entryX=0.5;entryY=0;entryDx=0;entryDy=0;entryPerimeter=0;" edge="1" parent="1" source="jff7gDj7DH_eG66rNZbx-12" target="jff7gDj7DH_eG66rNZbx-5">
          <mxGeometry relative="1" as="geometry" />
        </mxCell>
        <mxCell id="jff7gDj7DH_eG66rNZbx-56" style="edgeStyle=orthogonalEdgeStyle;rounded=0;orthogonalLoop=1;jettySize=auto;html=1;entryX=1;entryY=0.5;entryDx=0;entryDy=0;entryPerimeter=0;" edge="1" parent="1" source="jff7gDj7DH_eG66rNZbx-10" target="jff7gDj7DH_eG66rNZbx-5">
          <mxGeometry relative="1" as="geometry">
            <Array as="points">
              <mxPoint x="740" y="580" />
            </Array>
          </mxGeometry>
        </mxCell>
        <mxCell id="jff7gDj7DH_eG66rNZbx-57" style="edgeStyle=orthogonalEdgeStyle;rounded=0;orthogonalLoop=1;jettySize=auto;html=1;entryX=0;entryY=0.5;entryDx=0;entryDy=0;entryPerimeter=0;" edge="1" parent="1" source="jff7gDj7DH_eG66rNZbx-11" target="jff7gDj7DH_eG66rNZbx-5">
          <mxGeometry relative="1" as="geometry" />
        </mxCell>
      </root>
    </mxGraphModel>
  </diagram>
</mxfile>
